<?xml version="1.0" encoding="UTF-8" standalone="no"?>
<!-- Created with Inkscape (http://www.inkscape.org/) -->

<svg
   xmlns:dc="http://purl.org/dc/elements/1.1/"
   xmlns:cc="http://creativecommons.org/ns#"
   xmlns:rdf="http://www.w3.org/1999/02/22-rdf-syntax-ns#"
   xmlns:svg="http://www.w3.org/2000/svg"
   xmlns="http://www.w3.org/2000/svg"
   xmlns:sodipodi="http://sodipodi.sourceforge.net/DTD/sodipodi-0.dtd"
   xmlns:inkscape="http://www.inkscape.org/namespaces/inkscape"
   width="744.09448819"
   height="1052.3622047"
   id="svg2"
   version="1.1"
   inkscape:version="0.48.0 r9654"
   sodipodi:docname="lines.svg">
  <defs
     id="defs4" />
  <sodipodi:namedview
     id="base"
     pagecolor="#ffffff"
     bordercolor="#666666"
     borderopacity="1.0"
     inkscape:pageopacity="0.0"
     inkscape:pageshadow="2"
     inkscape:zoom="0.7"
     inkscape:cx="274.83314"
     inkscape:cy="553.87022"
     inkscape:document-units="px"
     inkscape:current-layer="layer1"
     showgrid="false"
     inkscape:window-width="1385"
     inkscape:window-height="913"
     inkscape:window-x="1359"
     inkscape:window-y="37"
     inkscape:window-maximized="0" />
  <metadata
     id="metadata7">
    <rdf:RDF>
      <cc:Work
         rdf:about="">
        <dc:format>image/svg+xml</dc:format>
        <dc:type
           rdf:resource="http://purl.org/dc/dcmitype/StillImage" />
        <dc:title></dc:title>
      </cc:Work>
    </rdf:RDF>
  </metadata>
  <g
     inkscape:label="Layer 1"
     inkscape:groupmode="layer"
     id="layer1">
    <path
       style="fill:none;stroke:#d7e3f4;stroke-width:2;stroke-linecap:butt;stroke-linejoin:miter;stroke-opacity:1;stroke-miterlimit:4;stroke-dasharray:none;opacity:0.43426295"
       d="m 59.999997,699.50504 c 0,0 107.718483,-180.68655 200.000003,-200 89.58309,-18.7487 172.58749,138.29595 255.71429,100 C 643.4668,540.65033 654.28571,200.93361 654.28571,200.93361"
       id="path2989"
       inkscape:connector-curvature="0"
       sodipodi:nodetypes="caac" />
    <path
       sodipodi:nodetypes="caac"
       inkscape:connector-curvature="0"
       id="path3775"
       d="m 74.395892,704.65293 c 0,0 104.548658,-182.53898 196.479058,-203.46002 89.24224,-20.30928 174.9748,135.26282 257.42058,95.52194 126.7059,-61.07533 131.59429,-400.92913 131.59429,-400.92913"
       style="fill:none;stroke:#d7e3f4;stroke-width:2;stroke-linecap:butt;stroke-linejoin:miter;stroke-miterlimit:4;stroke-opacity:1;stroke-dasharray:none;opacity:0.43426295" />
    <path
       style="fill:none;stroke:#d7e3f4;stroke-width:2;stroke-linecap:butt;stroke-linejoin:miter;stroke-miterlimit:4;stroke-opacity:1;stroke-dasharray:none;opacity:0.43426295"
       d="m 88.880957,709.72332 c 0,0 101.346993,-184.3358 192.898263,-206.85807 88.8742,-21.86368 177.30882,132.18849 259.04847,91.01479 125.62069,-63.27736 124.57706,-403.16471 124.57706,-403.16471"
       id="path3777"
       inkscape:connector-curvature="0"
       sodipodi:nodetypes="caac" />
    <path
       sodipodi:nodetypes="caac"
       inkscape:connector-curvature="0"
       id="path3779"
       d="m 103.45383,714.71466 c 0,0 98.11445,-186.07648 189.25872,-210.1931 88.47908,-23.41142 179.58881,129.07389 260.59743,86.4799 124.49722,-65.4601 117.5219,-405.27747 117.5219,-405.27747"
       style="fill:none;stroke:#d7e3f4;stroke-width:2;stroke-linecap:butt;stroke-linejoin:miter;stroke-miterlimit:4;stroke-opacity:1;stroke-dasharray:none;opacity:0.43426295" />
    <path
       style="fill:none;stroke:#d7e3f4;stroke-width:2;stroke-linecap:butt;stroke-linejoin:miter;stroke-miterlimit:4;stroke-opacity:1;stroke-dasharray:none;opacity:0.43426295"
       d="m 118.11312,719.62543 c 0,0 94.85202,-187.76047 185.56151,-213.4641 C 391.73166,481.2093 485.48875,632.0813 565.74166,588.08 689.07748,520.4571 676.17259,180.81322 676.17259,180.81322"
       id="path3781"
       inkscape:connector-curvature="0"
       sodipodi:nodetypes="caac" />
    <path
       sodipodi:nodetypes="caac"
       inkscape:connector-curvature="0"
       id="path3783"
       d="m 132.8574,724.45414 c 0,0 91.56071,-189.38727 181.80779,-216.67009 87.60814,-26.48504 183.98403,122.7277 263.4568,77.3325 122.13684,-69.76511 103.30632,-409.13204 103.30632,-409.13204"
       style="fill:none;stroke:#d7e3f4;stroke-width:2;stroke-linecap:butt;stroke-linejoin:miter;stroke-miterlimit:4;stroke-opacity:1;stroke-dasharray:none;opacity:0.43426295" />
    <path
       style="fill:none;stroke:#d7e3f4;stroke-width:2;stroke-linecap:butt;stroke-linejoin:miter;stroke-miterlimit:4;stroke-opacity:1;stroke-dasharray:none;opacity:0.43426295"
       d="m 147.68523,729.19931 c 0,0 88.2415,-190.95637 177.99869,-219.81007 87.13257,-28.00997 186.0979,119.49805 264.76631,72.72277 120.90067,-71.88607 96.15025,-410.87267 96.15025,-410.87267"
       id="path3785"
       inkscape:connector-curvature="0"
       sodipodi:nodetypes="caac" />
    <path
       sodipodi:nodetypes="caac"
       inkscape:connector-curvature="0"
       id="path3787"
       d="m 162.59514,733.85951 c 0,0 84.89542,-192.46732 174.13537,-222.8831 86.63046,-29.52638 188.15508,116.23199 265.99516,68.09088 119.62768,-73.98513 88.9649,-412.48815 88.9649,-412.48815"
       style="fill:none;stroke:#d7e3f4;stroke-width:2;stroke-linecap:butt;stroke-linejoin:miter;stroke-miterlimit:4;stroke-opacity:1;stroke-dasharray:none;opacity:0.43426295" />
    <path
       style="fill:none;stroke:#d7e3f4;stroke-width:2;stroke-linecap:butt;stroke-linejoin:miter;stroke-miterlimit:4;stroke-opacity:1;stroke-dasharray:none;opacity:0.43426295"
       d="m 177.58564,738.4333 c 0,0 81.52346,-193.91963 170.21899,-225.88823 86.10196,-31.0338 190.15496,112.93052 267.14301,63.43825 118.31824,-76.06165 81.75243,-413.97797 81.75243,-413.97797"
       id="path3789"
       inkscape:connector-curvature="0"
       sodipodi:nodetypes="caac" />
    <path
       sodipodi:nodetypes="caac"
       inkscape:connector-curvature="0"
       id="path3791"
       d="m 192.6552,742.9193 c 0,0 78.12668,-195.31288 166.25077,-228.82456 85.54723,-32.53175 192.09691,109.59467 268.20947,58.76631 116.97276,-78.11501 74.51507,-415.3417 74.51507,-415.3417"
       style="fill:none;stroke:#d7e3f4;stroke-width:2;stroke-linecap:butt;stroke-linejoin:miter;stroke-miterlimit:4;stroke-opacity:1;stroke-dasharray:none;opacity:0.43426295" />
    <path
       style="fill:none;stroke:#d7e3f4;stroke-width:2;stroke-linecap:butt;stroke-linejoin:miter;stroke-miterlimit:4;stroke-opacity:1;stroke-dasharray:none;opacity:0.43426295"
       d="m 207.80228,747.31615 c 0,0 74.7061,-196.64664 162.23191,-231.69119 84.96645,-34.01981 193.98034,106.22542 269.19424,54.07645 115.59165,-80.14456 67.255,-416.57891 67.255,-416.57891"
       id="path3793"
       inkscape:connector-curvature="0"
       sodipodi:nodetypes="caac" />
  </g>
</svg>
